<?xml version="1.0" standalone="no"?>
<!DOCTYPE svg PUBLIC "-//W3C//DTD SVG 20010904//EN"
 "http://www.w3.org/TR/2001/REC-SVG-20010904/DTD/svg10.dtd">
<svg version="1.0" xmlns="http://www.w3.org/2000/svg"
 width="1024.000000pt" height="1024.000000pt" viewBox="0 0 1024.000000 1024.000000"
 preserveAspectRatio="xMidYMid meet">
<metadata>
Created by potrace 1.14, written by Peter Selinger 2001-2017
</metadata>
<g transform="translate(0.000000,1024.000000) scale(0.100000,-0.100000)"
fill="#000000" stroke="none">
<path d="M4010 8089 c-19 -4 -50 -11 -69 -14 -95 -16 -328 -107 -346 -135 -3
-6 -11 -8 -16 -5 -5 4 -9 1 -9 -4 0 -6 -5 -11 -10 -11 -6 0 -16 -5 -23 -10 -7
-6 -37 -29 -67 -52 -79 -61 -155 -139 -240 -248 -40 -52 -76 -97 -79 -100 -5
-4 -36 -41 -112 -135 -57 -69 -146 -177 -182 -219 -23 -27 -48 -59 -56 -70 -8
-12 -18 -23 -21 -26 -7 -6 -218 -262 -333 -405 -44 -55 -85 -104 -91 -110 -6
-5 -27 -30 -46 -55 -19 -25 -39 -50 -45 -56 -5 -6 -23 -28 -40 -49 -16 -21
-35 -43 -41 -49 -6 -6 -41 -49 -79 -96 -37 -47 -75 -93 -84 -102 -9 -9 -27
-31 -41 -49 -14 -17 -41 -51 -60 -74 -19 -23 -47 -57 -62 -76 -14 -19 -35 -44
-46 -57 -11 -13 -35 -41 -52 -62 -17 -21 -39 -48 -48 -59 -10 -10 -24 -28 -32
-38 -8 -10 -35 -43 -60 -73 -25 -30 -50 -62 -57 -70 -6 -8 -38 -46 -70 -85
-32 -38 -63 -77 -70 -85 -13 -16 -124 -153 -151 -185 -10 -11 -35 -42 -57 -70
-45 -56 -75 -92 -90 -109 -5 -6 -28 -34 -50 -61 -55 -69 -77 -96 -95 -114 -8
-9 -26 -32 -40 -51 -13 -19 -29 -39 -35 -45 -7 -5 -41 -46 -76 -90 -35 -44
-66 -82 -69 -85 -3 -3 -44 -52 -90 -110 -47 -57 -93 -114 -102 -125 -9 -11
-63 -76 -119 -145 -56 -69 -122 -149 -148 -179 -25 -30 -52 -64 -60 -75 -8
-12 -18 -23 -22 -26 -12 -9 -99 -157 -99 -169 0 -6 -4 -11 -10 -11 -5 0 -9 -3
-8 -7 2 -5 -10 -39 -26 -78 -15 -38 -30 -79 -33 -90 -2 -11 -7 -31 -10 -45 -3
-14 -7 -34 -8 -45 -2 -11 -4 -20 -5 -20 -14 0 -21 -298 -8 -363 5 -26 11 -59
13 -73 16 -110 154 -410 197 -427 4 -2 8 -8 8 -13 0 -11 39 -57 110 -128 140
-141 339 -251 535 -297 39 -9 79 -18 90 -21 39 -10 291 -11 345 -2 30 6 68 13
85 15 45 9 204 63 250 86 96 48 178 103 274 183 37 31 150 156 151 166 0 3 12
19 26 35 14 16 37 45 52 64 15 19 37 44 50 56 12 12 22 26 22 33 0 6 3 11 8
11 4 0 26 24 48 53 23 28 55 68 72 87 17 19 67 80 112 135 45 55 89 109 98
120 18 21 187 227 212 259 8 10 20 23 25 30 9 9 94 113 156 191 64 78 135 161
141 163 5 2 8 8 8 14 0 6 8 18 18 27 9 9 35 39 57 66 21 28 47 59 57 70 9 11
45 54 78 95 34 41 76 93 95 115 18 22 46 56 61 75 16 19 36 44 46 55 9 11 55
67 102 125 47 58 92 112 99 120 7 8 29 35 48 60 19 24 39 49 44 55 16 18 81
97 113 137 22 28 32 35 39 25 6 -6 37 -66 70 -132 128 -254 223 -438 234 -451
6 -8 9 -14 6 -14 -3 0 15 -37 39 -82 24 -45 44 -87 44 -94 0 -7 3 -14 8 -16 4
-1 47 -82 96 -178 95 -187 217 -426 363 -710 50 -96 130 -253 178 -349 130
-258 234 -385 412 -507 145 -99 320 -168 488 -192 64 -9 276 -9 337 0 50 7
173 35 198 45 8 4 18 5 23 5 4 -1 7 3 7 8 0 6 8 10 18 10 26 0 184 84 260 137
75 54 211 186 238 232 10 17 22 31 26 31 4 0 8 6 8 14 0 8 4 16 9 18 5 1 33
32 63 68 29 36 59 72 66 80 7 8 22 26 33 40 11 14 31 37 45 52 13 15 24 32 24
37 0 5 4 11 9 13 5 2 44 46 87 98 42 52 79 97 83 100 4 3 22 25 41 50 19 25
55 70 81 100 25 30 55 66 65 79 11 13 28 34 40 47 11 13 29 35 40 49 10 15 28
37 39 49 11 12 36 42 55 66 45 55 186 227 214 260 11 14 50 62 85 105 36 44
72 88 80 97 9 9 21 23 26 30 32 41 91 114 95 118 3 3 25 30 50 60 25 30 49 60
55 66 5 7 64 78 130 159 66 81 169 206 228 279 130 157 138 167 268 326 56 69
122 149 148 179 25 30 52 64 60 75 8 12 17 23 21 26 3 3 25 30 50 60 56 69 61
74 157 191 43 52 94 115 113 139 19 24 44 54 55 67 11 12 32 37 46 55 93 116
298 366 315 382 19 19 91 129 122 186 28 51 80 176 87 210 1 8 8 34 14 57 34
127 36 373 2 506 -5 20 -7 37 -4 37 3 0 1 6 -5 13 -6 7 -13 24 -15 38 -8 41
-65 172 -103 235 -75 125 -209 275 -298 332 -22 15 -49 34 -59 43 -45 41 -275
140 -358 154 -18 3 -36 8 -41 11 -16 10 -95 17 -223 18 -156 1 -240 -10 -355
-46 -122 -39 -292 -128 -369 -193 -50 -41 -178 -171 -206 -209 -33 -43 -126
-158 -135 -166 -3 -3 -24 -27 -45 -55 -22 -27 -42 -52 -45 -55 -5 -5 -88 -106
-103 -125 -4 -5 -17 -22 -30 -36 -12 -14 -38 -45 -57 -69 -19 -24 -40 -48 -45
-54 -6 -6 -39 -47 -75 -91 -36 -44 -69 -85 -75 -91 -5 -7 -22 -27 -37 -45 -26
-33 -182 -223 -217 -264 -9 -11 -43 -54 -76 -95 -33 -41 -65 -79 -71 -85 -6
-5 -47 -55 -91 -110 -44 -55 -129 -159 -189 -231 -60 -72 -163 -198 -229 -279
-66 -82 -125 -153 -130 -159 -6 -6 -43 -51 -83 -101 -41 -49 -92 -111 -115
-137 l-41 -47 -67 132 c-133 266 -301 592 -311 605 -6 6 -7 12 -3 12 4 0 3 6
-3 13 -5 6 -54 98 -107 202 -54 105 -147 287 -207 405 -61 118 -115 221 -120
228 -6 6 -7 12 -3 12 4 0 2 6 -4 13 -6 8 -75 140 -153 293 -143 283 -187 357
-252 429 -70 78 -141 146 -168 163 -16 9 -28 20 -28 24 0 4 -5 8 -11 8 -6 0
-25 11 -43 25 -18 14 -37 25 -41 25 -5 0 -16 6 -24 14 -18 16 -143 70 -211 92
-143 46 -411 68 -520 43z"/>
</g>
</svg>
